<svg id="visual" viewBox="0 0 1920 1080" width="1920" height="1080" xmlns="http://www.w3.org/2000/svg" xmlns:xlink="http://www.w3.org/1999/xlink" version="1.1"><rect x="0" y="0" width="1920" height="1080" fill="#D6E0E4"></rect><defs><linearGradient id="grad1_0" x1="43.8%" y1="0%" x2="100%" y2="100%"><stop offset="14.444444444444446%" stop-color="#86b9cf" stop-opacity="1"></stop><stop offset="85.55555555555554%" stop-color="#86b9cf" stop-opacity="1"></stop></linearGradient></defs><defs><linearGradient id="grad1_1" x1="43.8%" y1="0%" x2="100%" y2="100%"><stop offset="14.444444444444446%" stop-color="#86b9cf" stop-opacity="1"></stop><stop offset="85.55555555555554%" stop-color="#9bc3d4" stop-opacity="1"></stop></linearGradient></defs><defs><linearGradient id="grad1_2" x1="43.8%" y1="0%" x2="100%" y2="100%"><stop offset="14.444444444444446%" stop-color="#afcdd9" stop-opacity="1"></stop><stop offset="85.55555555555554%" stop-color="#9bc3d4" stop-opacity="1"></stop></linearGradient></defs><defs><linearGradient id="grad1_3" x1="43.8%" y1="0%" x2="100%" y2="100%"><stop offset="14.444444444444446%" stop-color="#afcdd9" stop-opacity="1"></stop><stop offset="85.55555555555554%" stop-color="#c2d6de" stop-opacity="1"></stop></linearGradient></defs><defs><linearGradient id="grad1_4" x1="43.8%" y1="0%" x2="100%" y2="100%"><stop offset="14.444444444444446%" stop-color="#d6e0e4" stop-opacity="1"></stop><stop offset="85.55555555555554%" stop-color="#c2d6de" stop-opacity="1"></stop></linearGradient></defs><defs><linearGradient id="grad2_0" x1="0%" y1="0%" x2="56.3%" y2="100%"><stop offset="14.444444444444446%" stop-color="#86b9cf" stop-opacity="1"></stop><stop offset="85.55555555555554%" stop-color="#86b9cf" stop-opacity="1"></stop></linearGradient></defs><defs><linearGradient id="grad2_1" x1="0%" y1="0%" x2="56.3%" y2="100%"><stop offset="14.444444444444446%" stop-color="#9bc3d4" stop-opacity="1"></stop><stop offset="85.55555555555554%" stop-color="#86b9cf" stop-opacity="1"></stop></linearGradient></defs><defs><linearGradient id="grad2_2" x1="0%" y1="0%" x2="56.3%" y2="100%"><stop offset="14.444444444444446%" stop-color="#9bc3d4" stop-opacity="1"></stop><stop offset="85.55555555555554%" stop-color="#afcdd9" stop-opacity="1"></stop></linearGradient></defs><defs><linearGradient id="grad2_3" x1="0%" y1="0%" x2="56.3%" y2="100%"><stop offset="14.444444444444446%" stop-color="#c2d6de" stop-opacity="1"></stop><stop offset="85.55555555555554%" stop-color="#afcdd9" stop-opacity="1"></stop></linearGradient></defs><defs><linearGradient id="grad2_4" x1="0%" y1="0%" x2="56.3%" y2="100%"><stop offset="14.444444444444446%" stop-color="#c2d6de" stop-opacity="1"></stop><stop offset="85.55555555555554%" stop-color="#d6e0e4" stop-opacity="1"></stop></linearGradient></defs><g transform="translate(1920, 0)"><path d="M0 918C-55.1 921.5 -110.2 925 -159.4 904.1C-208.6 883.1 -251.8 837.8 -291.1 799.7C-330.3 761.5 -365.5 730.5 -410 710.1C-454.5 689.7 -508.2 679.9 -546.4 651.1C-584.5 622.4 -607.1 574.6 -640.4 537.4C-673.7 500.1 -717.6 473.3 -755.2 436C-792.7 398.7 -823.9 350.9 -820.4 298.6C-816.8 246.3 -778.4 189.6 -788.8 139.1C-799.3 88.6 -858.7 44.3 -918 0L0 0Z" fill="#ccdbe1"></path><path d="M0 734.4C-44.1 737.2 -88.2 740 -127.5 723.2C-166.9 706.5 -201.5 670.3 -232.8 639.7C-264.2 609.2 -292.4 584.4 -328 568.1C-363.6 551.8 -406.6 543.9 -437.1 520.9C-467.6 497.9 -485.7 459.7 -512.3 429.9C-538.9 400.1 -574.1 378.7 -604.1 348.8C-634.2 318.9 -659.2 280.7 -656.3 238.9C-653.4 197 -622.7 151.7 -631.1 111.3C-639.4 70.9 -686.9 35.4 -734.4 0L0 0Z" fill="#b9d1dc"></path><path d="M0 550.8C-33.1 552.9 -66.1 555 -95.6 542.4C-125.2 529.9 -151.1 502.7 -174.6 479.8C-198.2 456.9 -219.3 438.3 -246 426.1C-272.7 413.8 -304.9 407.9 -327.8 390.7C-350.7 373.4 -364.3 344.8 -384.2 322.4C-404.2 300.1 -430.6 284 -453.1 261.6C-475.6 239.2 -494.4 210.5 -492.2 179.2C-490.1 147.8 -467 113.8 -473.3 83.5C-479.6 53.2 -515.2 26.6 -550.8 0L0 0Z" fill="#a5c8d7"></path><path d="M0 367.2C-22 368.6 -44.1 370 -63.8 361.6C-83.4 353.3 -100.7 335.1 -116.4 319.9C-132.1 304.6 -146.2 292.2 -164 284.1C-181.8 275.9 -203.3 272 -218.5 260.5C-233.8 248.9 -242.9 229.9 -256.2 214.9C-269.5 200 -287 189.3 -302.1 174.4C-317.1 159.5 -329.6 140.3 -328.1 119.4C-326.7 98.5 -311.3 75.8 -315.5 55.6C-319.7 35.4 -343.5 17.7 -367.2 0L0 0Z" fill="#90bed1"></path><path d="M0 183.6C-11 184.3 -22 185 -31.9 180.8C-41.7 176.6 -50.4 167.6 -58.2 159.9C-66.1 152.3 -73.1 146.1 -82 142C-90.9 137.9 -101.6 136 -109.3 130.2C-116.9 124.5 -121.4 114.9 -128.1 107.5C-134.7 100 -143.5 94.7 -151 87.2C-158.5 79.7 -164.8 70.2 -164.1 59.7C-163.4 49.3 -155.7 37.9 -157.8 27.8C-159.9 17.7 -171.7 8.9 -183.6 0L0 0Z" fill="#86b9cf"></path></g><g transform="translate(0, 1080)"><path d="M0 -918C48.1 -856.7 96.1 -795.4 131.1 -743.5C166.1 -691.7 187.9 -649.3 244.2 -670.9C300.5 -692.5 391.3 -778.1 459 -795C526.7 -811.9 571.4 -760.3 576.6 -687.1C581.7 -614 547.4 -519.5 554.6 -465.4C561.8 -411.3 610.7 -397.5 631.3 -364.5C652 -331.5 644.5 -279.2 655 -238.4C665.4 -197.6 693.8 -168.4 740.6 -130.6C787.4 -92.8 852.7 -46.4 918 0L0 0Z" fill="#ccdbe1"></path><path d="M0 -734.4C38.5 -685.3 76.9 -636.3 104.9 -594.8C132.8 -553.4 150.3 -519.5 195.4 -536.8C240.4 -554 313 -622.5 367.2 -636C421.4 -649.6 457.1 -608.2 461.3 -549.7C465.4 -491.2 437.9 -415.6 443.7 -372.3C449.5 -329 488.5 -318 505.1 -291.6C521.6 -265.2 515.6 -223.3 524 -190.7C532.3 -158.1 555 -134.7 592.5 -104.5C629.9 -74.2 682.2 -37.1 734.4 0L0 0Z" fill="#b9d1dc"></path><path d="M0 -550.8C28.8 -514 57.7 -477.2 78.7 -446.1C99.6 -415 112.7 -389.6 146.5 -402.6C180.3 -415.5 234.8 -466.8 275.4 -477C316 -487.2 342.8 -456.2 345.9 -412.3C349 -368.4 328.4 -311.7 332.8 -279.2C337.1 -246.8 366.4 -238.5 378.8 -218.7C391.2 -198.9 386.7 -167.5 393 -143C399.2 -118.6 416.3 -101 444.3 -78.4C472.4 -55.7 511.6 -27.8 550.8 0L0 0Z" fill="#a5c8d7"></path><path d="M0 -367.2C19.2 -342.7 38.5 -318.1 52.4 -297.4C66.4 -276.7 75.2 -259.7 97.7 -268.4C120.2 -277 156.5 -311.2 183.6 -318C210.7 -324.8 228.6 -304.1 230.6 -274.9C232.7 -245.6 219 -207.8 221.8 -186.2C224.7 -164.5 244.3 -159 252.5 -145.8C260.8 -132.6 257.8 -111.7 262 -95.4C266.2 -79 277.5 -67.4 296.2 -52.2C315 -37.1 341.1 -18.6 367.2 0L0 0Z" fill="#90bed1"></path><path d="M0 -183.6C9.6 -171.3 19.2 -159.1 26.2 -148.7C33.2 -138.3 37.6 -129.9 48.8 -134.2C60.1 -138.5 78.3 -155.6 91.8 -159C105.3 -162.4 114.3 -152.1 115.3 -137.4C116.3 -122.8 109.5 -103.9 110.9 -93.1C112.4 -82.3 122.1 -79.5 126.3 -72.9C130.4 -66.3 128.9 -55.8 131 -47.7C133.1 -39.5 138.8 -33.7 148.1 -26.1C157.5 -18.6 170.5 -9.3 183.6 0L0 0Z" fill="#86b9cf"></path></g></svg>