<svg id="Layer_1" data-name="Layer 1" xmlns="http://www.w3.org/2000/svg" viewBox="0 0 64 64"><defs><style>.cls-1{fill:#737373;}</style></defs><path class="cls-1" d="M32,46A14.34,14.34,0,0,1,17.71,32.7L7.22,24.59a33,33,0,0,0-3.67,5.56,3.2,3.2,0,0,0,0,2.92A32.07,32.07,0,0,0,32,50.81a31.34,31.34,0,0,0,7.79-1l-5.19-4A14.24,14.24,0,0,1,32,46Zm31.38,5.81L52.33,43.28a33.14,33.14,0,0,0,8.12-10.21,3.2,3.2,0,0,0,0-2.92A32.07,32.07,0,0,0,32,12.41a30.82,30.82,0,0,0-14.73,3.77L4.55,6.35a1.61,1.61,0,0,0-2.25.28h0l-2,2.53A1.59,1.59,0,0,0,.62,11.4L59.45,56.87a1.6,1.6,0,0,0,2.25-.28h0l2-2.52A1.6,1.6,0,0,0,63.38,51.82ZM45,37.62l-3.93-3a9.37,9.37,0,0,0,.52-3A9.48,9.48,0,0,0,32.25,22a9.67,9.67,0,0,0-2.78.38,4.79,4.79,0,0,1,.93,2.82,5.62,5.62,0,0,1-.15,1l-7.37-5.69A14.35,14.35,0,0,1,46.4,31.6h0a14.07,14.07,0,0,1-1.39,6Z"/></svg>